<?xml version="1.0" standalone="no"?>
<!DOCTYPE svg PUBLIC "-//W3C//DTD SVG 20010904//EN"
 "http://www.w3.org/TR/2001/REC-SVG-20010904/DTD/svg10.dtd">
<svg version="1.0" xmlns="http://www.w3.org/2000/svg"
 width="2559.000000pt" height="2559.000000pt" viewBox="0 0 2559.000000 2559.000000"
 preserveAspectRatio="xMidYMid meet">
<metadata>
Created by potrace 1.14, written by Peter Selinger 2001-2017
</metadata>
<g transform="translate(0.000000,2559.000000) scale(0.100000,-0.100000)"
fill="#000000" stroke="none">
<path d="M12487 25534 c-1 -1 -83 -5 -182 -9 -340 -13 -542 -27 -760 -50 -22
-2 -71 -7 -110 -10 -38 -4 -81 -8 -95 -10 -14 -2 -56 -7 -95 -10 -38 -3 -77
-8 -85 -10 -8 -2 -40 -7 -70 -10 -30 -3 -66 -8 -80 -10 -14 -2 -61 -9 -105
-15 -44 -6 -91 -13 -105 -15 -14 -3 -43 -7 -65 -10 -22 -3 -51 -8 -65 -10 -14
-3 -38 -7 -55 -9 -35 -6 -199 -34 -235 -41 -268 -50 -582 -117 -735 -156 -76
-20 -91 -23 -132 -33 -90 -20 -436 -116 -633 -176 -364 -109 -1039 -353 -1275
-460 -22 -10 -84 -37 -137 -59 -89 -38 -241 -106 -423 -191 -95 -44 -455 -224
-535 -268 -238 -129 -476 -263 -575 -323 -16 -10 -43 -26 -60 -35 -207 -116
-840 -538 -995 -664 -189 -153 -327 -266 -336 -275 -6 -5 -37 -32 -70 -60 -32
-27 -77 -66 -99 -86 -74 -66 -110 -97 -134 -118 -206 -178 -691 -663 -931
-931 -41 -46 -82 -91 -90 -100 -87 -90 -466 -552 -628 -767 -192 -255 -470
-656 -611 -883 -19 -30 -46 -73 -61 -95 -14 -22 -29 -47 -33 -55 -4 -8 -15
-27 -25 -42 -17 -26 -107 -175 -128 -213 -6 -11 -34 -60 -62 -109 -29 -49 -52
-90 -52 -91 0 -1 -30 -55 -66 -121 -71 -128 -326 -637 -386 -769 -20 -44 -47
-105 -61 -135 -14 -30 -46 -104 -72 -165 -44 -103 -57 -135 -104 -253 l-19
-47 793 0 c437 0 795 2 798 5 2 3 16 25 30 50 101 179 268 460 350 590 48 75
317 480 330 495 4 6 29 39 54 75 129 178 418 557 443 580 3 3 52 61 110 130
97 117 268 312 385 440 90 99 578 584 669 665 49 44 96 87 105 95 9 9 52 47
96 85 44 39 85 75 91 81 6 5 31 26 54 45 23 18 47 39 54 44 33 31 196 163 302
246 135 105 136 106 289 219 61 45 118 88 128 96 9 7 20 14 24 14 4 0 16 8 27
19 67 60 845 561 873 561 3 0 17 8 31 18 15 11 59 36 97 57 39 21 131 72 205
113 142 77 601 308 635 318 11 4 47 20 80 36 33 16 119 54 190 85 72 30 144
61 160 68 294 127 831 316 1215 428 142 42 587 159 653 172 15 3 39 7 55 10
15 3 35 8 44 11 10 3 28 7 40 10 29 5 35 6 188 38 69 14 143 28 165 31 22 4
48 8 58 11 10 3 31 7 47 9 25 3 107 18 166 29 12 2 45 7 75 11 30 3 61 8 69
10 8 2 35 7 60 10 25 3 56 8 70 10 14 3 48 7 75 10 28 2 68 7 90 10 63 9 95
13 170 20 39 4 77 9 86 10 8 2 55 6 105 10 49 4 101 8 115 11 l27 4 0 -11803
c1 -6491 1 -11811 1 -11823 1 -19 8 -21 64 -23 34 -2 82 -4 107 -6 246 -19
993 -26 1305 -12 371 17 498 27 509 38 6 5 10 4654 10 11811 l1 11803 30 -2
c74 -5 172 -13 195 -18 14 -2 52 -7 85 -10 33 -3 71 -8 85 -10 22 -3 112 -15
230 -31 19 -2 51 -7 70 -10 19 -3 44 -8 55 -9 39 -7 100 -16 130 -21 17 -2 41
-6 55 -9 14 -3 63 -12 110 -20 91 -16 120 -21 160 -30 14 -3 36 -7 50 -10 14
-3 36 -7 50 -10 14 -3 34 -7 45 -9 20 -4 207 -44 235 -51 8 -1 42 -10 75 -18
33 -9 71 -18 85 -21 94 -17 595 -159 800 -226 69 -23 130 -43 135 -44 6 -2 17
-6 25 -9 8 -3 67 -24 130 -45 240 -83 544 -201 722 -281 26 -11 50 -21 52 -21
24 0 670 -311 876 -422 72 -39 277 -152 312 -173 126 -73 215 -127 271 -162
37 -24 74 -43 82 -43 8 0 15 -4 15 -8 0 -5 35 -30 78 -57 244 -153 613 -410
852 -594 199 -153 613 -497 706 -586 12 -11 59 -54 105 -95 107 -95 605 -593
725 -725 169 -186 415 -475 544 -640 30 -38 57 -72 60 -75 3 -3 23 -30 45 -60
22 -30 46 -61 53 -69 7 -8 21 -26 30 -40 9 -14 26 -36 37 -49 11 -13 34 -43
50 -67 17 -23 76 -107 131 -186 207 -293 505 -767 646 -1029 l46 -85 794 0
c688 1 793 3 790 15 -5 22 -147 360 -192 457 -22 47 -40 86 -40 88 0 22 -305
633 -419 840 -43 76 -149 265 -161 285 -4 8 -36 62 -71 120 -81 138 -283 456
-377 595 -120 176 -157 230 -162 235 -3 3 -39 52 -80 110 -63 90 -266 360
-306 409 -7 9 -35 43 -61 76 -26 33 -56 69 -65 80 -9 11 -50 61 -90 110 -40
50 -85 104 -99 120 -15 17 -77 89 -140 160 -62 72 -127 146 -145 165 -156 170
-230 247 -444 460 -135 135 -272 270 -305 300 -34 30 -104 94 -155 141 -52 48
-149 133 -215 189 -66 56 -142 121 -170 145 -66 56 -123 103 -171 140 -21 17
-52 41 -69 55 -186 155 -803 561 -1200 790 -106 61 -253 143 -330 185 -49 26
-114 61 -143 77 -181 99 -627 314 -871 420 -63 27 -129 55 -145 63 -286 131
-1194 455 -1501 535 -16 4 -113 31 -215 59 -101 28 -194 53 -205 55 -11 3 -85
21 -165 41 -144 36 -261 62 -395 90 -38 8 -81 17 -95 20 -63 13 -178 35 -205
40 -16 2 -41 7 -55 10 -14 3 -65 12 -115 20 -49 8 -101 17 -115 20 -168 30
-646 94 -830 110 -41 4 -82 9 -91 10 -9 2 -58 6 -110 10 -52 3 -110 8 -129 10
-50 5 -223 17 -305 20 -38 2 -142 6 -230 11 -132 6 -863 12 -868 8z"/>
<path d="M555 16618 c-2 -7 -13 -42 -24 -78 -11 -36 -37 -123 -57 -195 -32
-114 -42 -151 -60 -227 -2 -10 -6 -26 -9 -35 -43 -150 -141 -596 -196 -888
-33 -181 -34 -183 -43 -259 -3 -27 -13 -88 -21 -135 -7 -47 -16 -104 -19 -126
-3 -22 -8 -60 -12 -85 -8 -63 -11 -85 -19 -160 -4 -36 -9 -73 -11 -83 -2 -10
-6 -48 -9 -85 -3 -37 -8 -83 -10 -102 -2 -19 -6 -64 -10 -100 -3 -36 -8 -87
-10 -115 -3 -27 -7 -90 -10 -140 -3 -49 -8 -112 -10 -140 -25 -303 -25 -1329
0 -1560 2 -22 7 -87 10 -145 6 -100 8 -127 20 -245 2 -27 9 -103 15 -167 6
-65 13 -127 15 -137 2 -11 6 -48 10 -83 3 -35 11 -94 16 -133 6 -38 12 -88 15
-110 3 -22 9 -65 14 -95 5 -30 12 -73 15 -95 3 -23 8 -52 10 -65 3 -14 8 -45
11 -70 3 -25 10 -63 14 -85 5 -22 12 -56 15 -75 16 -93 59 -317 81 -415 26
-115 30 -137 40 -182 11 -59 126 -506 170 -663 89 -323 303 -942 445 -1285 34
-82 72 -175 84 -205 121 -293 383 -831 547 -1123 21 -38 38 -70 38 -73 0 -7
213 -371 256 -436 24 -37 44 -70 44 -72 0 -14 391 -604 455 -688 11 -14 27
-36 35 -48 48 -71 333 -449 375 -496 6 -7 19 -24 30 -40 11 -15 25 -32 30 -38
6 -6 51 -60 100 -121 94 -115 333 -391 420 -484 407 -438 851 -864 1195 -1148
14 -11 57 -47 95 -80 39 -32 108 -89 155 -127 47 -37 94 -75 105 -84 144 -119
773 -572 795 -572 4 0 10 -3 12 -7 13 -30 596 -387 943 -578 28 -15 70 -39 95
-53 104 -57 596 -303 730 -365 903 -412 1767 -695 2770 -906 52 -11 109 -22
125 -25 49 -9 139 -26 160 -30 11 -2 40 -7 65 -11 25 -4 54 -9 65 -11 11 -3
38 -7 60 -10 l40 -6 0 5171 c0 4604 -1 5171 -15 5172 -28 2 -385 10 -1165 24
-203 4 -745 14 -1065 20 -107 2 -368 7 -580 10 -212 4 -461 8 -555 10 -155 4
-373 8 -1035 20 -129 2 -401 7 -605 10 l-370 7 1 -1079 c1 -593 2 -1083 3
-1090 1 -8 413 -11 1642 -11 903 -1 1644 -4 1647 -7 9 -9 9 -5356 1 -5361 -4
-2 -76 25 -160 60 -727 300 -1419 665 -2024 1069 -140 93 -454 314 -465 327
-3 4 -43 35 -90 70 -102 77 -87 65 -235 186 -372 304 -702 616 -1060 1004
-155 168 -393 458 -549 670 -59 80 -112 152 -119 160 -53 66 -437 660 -437
675 0 3 -19 35 -41 72 -198 324 -483 924 -674 1421 -128 335 -354 1078 -410
1349 -2 10 -9 41 -15 68 -6 28 -13 59 -16 70 -2 11 -8 41 -14 66 -6 26 -13 53
-14 60 -7 36 -16 86 -20 109 -2 14 -9 45 -15 70 -12 54 -45 242 -66 380 -4 25
-9 52 -10 60 -2 8 -6 35 -9 60 -3 25 -8 54 -10 65 -2 11 -7 45 -10 76 -4 31
-8 65 -10 75 -2 11 -7 48 -11 84 -4 36 -9 79 -11 95 -2 17 -6 53 -9 80 -2 28
-7 70 -9 95 -3 25 -8 74 -11 110 -3 36 -8 83 -10 105 -2 22 -7 83 -10 135 -3
52 -8 120 -10 150 -19 237 -25 968 -11 1245 10 211 24 413 31 480 2 17 6 59
10 95 16 169 17 179 34 305 6 39 13 91 16 117 4 26 10 60 14 75 l7 28 3252 2
c1789 0 3252 -2 3253 -5 0 -4 2 -639 4 -1412 1 -773 3 -1407 4 -1410 1 -4
2014 -5 2031 -1 3 0 5 1108 5 2461 l0 2460 -5103 0 c-4073 0 -5103 -3 -5107
-12z"/>
<path d="M14990 8431 l0 -8198 48 9 c45 8 61 11 128 22 176 31 543 111 789
172 99 25 187 47 195 49 109 23 700 206 925 285 l50 18 3 3846 c1 2115 5 3846
10 3846 4 1 1750 1 3880 1 3646 1 3872 2 3872 18 0 9 4 21 9 26 13 14 202 588
256 780 66 230 178 667 201 785 2 14 11 57 20 95 8 39 16 79 18 90 2 11 14 67
25 125 12 58 24 121 27 140 3 19 12 65 19 103 9 49 10 67 1 68 -24 2 -1801 13
-5471 34 -588 4 -1360 8 -1715 10 -355 2 -781 4 -947 5 l-303 1 0 1933 c0
1538 3 1935 13 1938 6 3 59 3 117 2 58 -1 272 -5 475 -8 204 -4 483 -9 620
-11 138 -3 383 -7 545 -10 162 -3 421 -7 575 -10 154 -3 411 -7 570 -10 160
-2 414 -7 565 -10 151 -3 408 -7 570 -10 399 -7 802 -14 1115 -20 143 -3 409
-7 590 -10 463 -8 768 -13 1150 -20 1693 -30 1634 -30 1642 -22 2 3 0 30 -6
59 -7 30 -14 68 -17 84 -2 16 -11 64 -20 107 -8 42 -17 90 -20 105 -2 15 -12
65 -20 112 -9 47 -18 96 -20 110 -5 26 -72 379 -80 416 -59 293 -165 719 -261
1044 l-28 95 -5058 3 -5057 2 0 -8199z"/>
</g>
</svg>
